<svg xmlns="http://www.w3.org/2000/svg" id="Layer_1" data-name="Layer 1" viewBox="0 0 512 512"><defs><style>.cls-1{fill:#4b3f6b}.cls-2{fill:#fff}</style></defs><rect width="511" height="511" x=".5" y=".5" class="cls-1" rx="113.25"/><path d="M398.25,1A112.74,112.74,0,0,1,511,113.75v284.5A112.74,112.74,0,0,1,398.25,511H113.75A112.74,112.74,0,0,1,1,398.25V113.75A112.74,112.74,0,0,1,113.75,1h284.5m0-1H113.75A113.75,113.75,0,0,0,0,113.75v284.5A113.75,113.75,0,0,0,113.75,512h284.5A113.75,113.75,0,0,0,512,398.25V113.75A113.75,113.75,0,0,0,398.25,0Z" class="cls-2"/><path d="M365.69,69,209.37,443H146.31L302,69Z" class="cls-2"/></svg>